# xmcd
# Copyright (C) 1995-1998 Ti Kan
#
# Track frame offsets:
#       150
#       14239
#       31994
#       49123
#       73978
#       88475
#       105937
#       130089
#       146838
#       159577
#       182705
#
# Disc length: 2710 seconds
#
# Revision: 1
# Processed by: cddbd v1.4PL0 Copyright (c) Steve Scherf et al.
# Submitted via: CD-DA X-Tractor v0.20
#
DISCID=a00a940b
DTITLE=Jerry Douglas - Restless On The Farm
DYEAR=1900
DGENRE=
TTITLE0=Things In Life Vocal: Tim O'Brien
TTITLE1=Turkish Taffee
TTITLE2=Passing The Bar
TTITLE3=Don't Take Your Guns To Town Vocal: Steve Earle
TTITLE4=A Tribute to Peador O'Donnell
TTITLE5=Takarasaka
TTITLE6=Follow On Vocal: Maura O'Connell and Tim O'Brien
TTITLE7=Like It Is
TTITLE8=The Ride
TTITLE9=TV Doctor Vocal: John Cowan
TTITLE10=For Those Who've Gone Clear
EXTD=
EXTT0=
EXTT1=
EXTT2=
EXTT3=
EXTT4=
EXTT5=
EXTT6=
EXTT7=
EXTT8=
EXTT9=
EXTT10=
PLAYORDER=
